<svg width="423" height="291" viewBox="0 0 423 291" fill="none" xmlns="http://www.w3.org/2000/svg">
<mask id="mask0_243_251" style="mask-type:alpha" maskUnits="userSpaceOnUse" x="0" y="0" width="423" height="291">
<rect width="423" height="291" fill="#FA7436"/>
</mask>
<g mask="url(#mask0_243_251)">
<path d="M255.725 253.471C255.725 322.903 199.518 379.188 130.186 379.188C60.8529 379.188 4.64574 322.903 4.64575 253.471C4.64577 184.038 60.853 127.753 130.186 127.753C199.518 127.753 255.725 184.038 255.725 253.471Z" stroke="#E5E5E5"/>
<path d="M283.918 243.506C283.918 321.193 221.029 384.17 143.453 384.17C65.8771 384.17 2.9875 321.193 2.9873 243.506C2.9873 165.818 65.877 102.841 143.453 102.841C221.029 102.841 283.918 165.818 283.918 243.506Z" stroke="#E5E5E5"/>
<path d="M307.965 235.203C307.965 320.228 239.136 389.153 154.232 389.153C69.3291 389.153 0.500228 320.228 0.499993 235.203C0.499997 150.178 69.329 81.2519 154.232 81.2519C239.136 81.252 307.965 150.178 307.965 235.203Z" stroke="#E5E5E5"/>
<path d="M335.329 226.898C335.329 318.344 261.302 392.475 169.987 392.475C78.6727 392.474 4.64653 318.344 4.64648 226.898C4.64648 135.453 78.6727 61.3225 169.987 61.3223C261.302 61.3223 335.329 135.453 335.329 226.898Z" stroke="#E5E5E5"/>
<path d="M361.864 219.01C361.864 316.647 282.825 395.796 185.327 395.796C87.8303 395.796 8.79222 316.647 8.79223 219.01C8.79227 121.373 87.8304 42.2239 185.327 42.2236C282.825 42.2236 361.863 121.373 361.864 219.01Z" stroke="#E5E5E5"/>
<path d="M396.69 205.725C396.69 312.992 309.855 399.948 202.741 399.948C95.6268 399.948 8.79197 312.992 8.79174 205.725C8.79174 98.457 95.6267 11.5001 202.741 11.5C309.855 11.5 396.69 98.4569 396.69 205.725Z" stroke="#E5E5E5"/>
</g>
</svg>
