<svg width="785" height="191" viewBox="0 0 785 191" fill="none" xmlns="http://www.w3.org/2000/svg">
<path fill-rule="evenodd" clip-rule="evenodd" d="M525.419 115.816C522.624 118.495 523.424 118.182 516.921 116.222C511.218 114.366 513.923 113.751 508.818 116.732C504.219 119.516 496.713 122.288 493.22 124.445C494.527 127.426 505.718 137.204 508.423 141.217C507.42 141.728 506.62 142.145 505.527 142.656C503.825 143.479 504.231 143.479 502.225 142.25C497.829 139.675 483.719 131.439 480.924 130.21C477.227 131.857 467.422 137.007 464.03 136.798C462.429 136.694 459.826 136.288 460.333 134.223C461.629 129.178 470.431 126.405 476.134 123.83C478.433 122.798 477.836 122.903 478.332 120.328C478.94 117.555 482.738 97.3848 483.629 96.3525C484.023 96.0394 487.122 94.7055 487.731 94.3923C488.035 96.2481 488.227 98.3012 488.328 100.261L489.331 111.686C489.331 113.542 489.636 115.7 489.929 117.451C492.532 116.117 495.124 114.98 497.829 113.647C511.23 107.058 508.829 111.489 511.928 104.077C513.732 99.9598 513.732 97.4892 517.631 98.104C516.921 106.351 519.119 111.489 525.419 115.816ZM411.623 36.0612C415.229 37.1979 414.418 37.3022 419.422 32.5583C423.817 28.4406 421.123 29.0554 427.018 29.5773C432.213 29.9833 440.215 29.2642 444.318 29.6817C444.419 32.8714 438.322 46.6626 437.522 51.4994C438.626 51.4994 439.517 51.4994 440.722 51.4994C442.627 51.4994 442.221 51.7081 443.619 49.7479C446.515 45.4215 455.723 31.7347 457.82 29.4729C461.922 29.3686 472.82 29.5773 475.818 28.0347C477.216 27.2111 479.413 25.5641 478.117 23.917C474.815 20.0082 465.72 21.3421 459.521 21.5509C457.019 21.5509 457.628 21.4465 456.016 19.3935C454.314 17.1317 442.514 0.55675 441.32 0.0463958C440.824 -0.0579948 437.42 0.0463958 436.823 0.0463958C437.229 1.90223 437.927 3.74646 438.626 5.6023L442.526 16.4009C443.224 18.048 443.923 20.2054 444.43 21.8524C441.534 21.748 438.626 21.8524 435.628 21.8524C420.83 21.8524 424.933 24.8334 418.926 19.4862C415.635 16.5053 414.632 14.3363 411.329 16.6097C415.33 23.7199 415.522 29.3686 411.623 36.0612ZM410.022 25.5641C411.521 25.3553 412.028 27.7215 410.315 28.0347L407.915 28.3478C406.416 28.661 405.807 26.1904 407.509 25.8773L410.022 25.5641ZM197.644 190.223C196.844 191.87 194.646 190.629 195.345 189.191L195.943 187.857C196.743 186.314 198.94 187.544 198.14 188.993L197.644 190.223ZM201.442 182.092C200.642 183.635 198.445 182.51 199.245 180.955L200.349 178.693C201.048 177.151 203.246 178.38 202.547 179.819L201.442 182.092ZM205.939 173.033C205.241 174.471 202.941 173.439 203.742 171.897L204.936 169.635C205.635 168.196 207.833 169.229 207.134 170.876L205.939 173.033ZM210.74 164.183C209.839 165.726 207.743 164.288 208.543 162.942L209.839 160.68C210.74 159.138 212.735 160.576 211.935 161.91L210.74 164.183ZM215.744 155.438C214.843 156.876 212.747 155.542 213.648 154.104L214.944 151.946C215.744 150.508 217.942 151.842 217.041 153.28L215.744 155.438ZM221.042 146.796C220.241 148.13 218.044 146.901 218.945 145.463L220.343 143.305C221.143 141.971 223.341 143.201 222.338 144.743L221.042 146.796ZM226.541 138.457C225.538 139.791 223.645 138.248 224.547 136.914L225.944 134.861C226.947 133.527 228.942 135.07 227.939 136.404L226.541 138.457ZM232.334 130.221C231.331 131.555 229.438 130.013 230.43 128.679L231.929 126.626C232.932 125.292 234.825 126.939 233.822 128.168L232.334 130.221ZM238.139 122.508C237.237 123.019 236.144 122.195 236.234 121.174C236.132 120.56 236.628 119.736 237.338 119.632L238.139 118.599C239.142 117.37 241.136 118.912 240.043 120.246L239.84 120.56L240.235 120.664C241.835 121.279 240.832 123.645 239.333 123.03L238.139 122.508ZM244.844 114.482C243.638 115.723 241.948 113.971 243.041 112.73L244.642 110.874C245.836 109.541 247.538 111.385 246.445 112.521L244.844 114.482ZM251.539 106.966C250.434 108.195 248.541 106.455 249.736 105.214L251.438 103.358C252.542 102.129 254.334 103.869 253.241 105.11L251.539 106.966ZM258.436 99.7626C257.14 100.899 255.54 98.9391 256.735 97.9068L258.436 96.1553C259.732 94.9143 261.333 96.8745 260.24 98.0112L258.436 99.7626ZM265.638 92.7684C264.432 93.9051 262.742 92.0493 263.936 90.9126L265.841 89.1612C267.036 88.0245 268.737 89.9847 267.441 91.1214L265.638 92.7684ZM273.031 86.1802C271.927 87.2126 270.236 85.3567 271.533 84.2316L273.437 82.5846C274.835 81.4479 276.232 83.6169 274.936 84.5448L273.031 86.1802ZM280.831 79.8008C279.433 80.8331 278.035 78.7685 279.332 77.8406L281.236 76.2979C282.634 75.2656 284.031 77.3302 282.735 78.2582L280.831 79.8008ZM288.731 73.8274C287.536 74.7553 285.936 72.795 287.333 71.7743C288.032 71.264 288.731 70.742 289.43 70.3361C290.624 69.4082 292.225 71.3684 290.827 72.3891C290.14 72.8994 289.441 73.317 288.731 73.8274ZM296.936 68.1671C295.538 69.095 294.332 66.8332 295.64 66.0097L297.736 64.6758C299.134 63.7479 300.441 66.0097 299.032 66.8332L296.936 68.1671ZM305.332 62.9243C304.036 63.7479 302.639 61.5905 304.138 60.6625L306.335 59.433C307.631 58.6095 309.029 60.7669 307.53 61.6948L305.332 62.9243ZM314.033 57.9832C312.433 58.8067 311.429 56.4405 312.827 55.7214L315.025 54.4919C316.524 53.7728 317.628 56.1389 316.231 56.8581L314.033 57.9832ZM322.835 53.4596C321.438 54.1787 320.232 51.9169 321.73 51.0934C322.531 50.7802 323.229 50.3743 324.03 50.0611C325.427 49.342 326.532 51.6038 325.033 52.3229C324.334 52.7289 323.534 53.042 322.835 53.4596ZM331.829 49.2376C330.228 49.8523 329.428 47.4861 330.826 46.8714L333.125 45.8391C334.725 45.2243 335.525 47.6833 334.026 48.2053L331.829 49.2376ZM340.935 45.4215C339.436 46.0363 338.535 43.6701 340.033 43.0553L342.434 42.1274C343.832 41.5127 344.835 43.8789 343.234 44.4936L340.935 45.4215ZM350.233 41.9302C348.734 42.4406 347.833 40.0744 349.433 39.564C350.233 39.2509 351.033 38.9493 351.833 38.7405C353.231 38.1258 354.133 40.492 352.532 41.1067C351.732 41.4083 351.033 41.6171 350.233 41.9302ZM359.633 38.8449C357.931 39.2509 357.435 36.7919 358.934 36.3743L361.334 35.6552C362.935 35.2492 363.532 37.7082 361.932 38.1258L359.633 38.8449ZM369.133 36.0612C367.533 36.4787 366.936 34.0081 368.536 33.5906L370.937 32.9758C372.436 32.5699 373.134 35.0288 371.534 35.4464L369.133 36.0612ZM378.724 33.695C377.226 34.1009 376.425 31.642 378.127 31.12L380.629 30.6096C382.331 30.2965 382.635 32.8714 381.125 33.0802L378.724 33.695ZM388.327 31.5376C386.726 31.8507 386.332 29.3802 387.932 29.067L390.333 28.661C392.035 28.3478 392.429 30.8184 390.829 31.1316L388.327 31.5376ZM398.121 29.7861C396.52 30.0993 396.024 27.6287 397.726 27.3155L400.127 26.9096C401.727 26.5964 402.223 29.1714 400.521 29.4845L398.121 29.7861ZM65.1505 129.398C62.3442 132.077 63.1557 131.764 56.6527 129.711C50.9499 127.96 53.6548 127.241 48.5493 130.326C43.9511 133.005 36.445 135.882 32.9512 138.039C34.2473 141.02 45.45 150.798 48.1549 154.811C47.1518 155.322 46.3516 155.635 45.2584 156.145C43.5566 157.073 43.9623 157.073 41.9562 155.832C37.5608 153.257 23.4616 144.917 20.6553 143.792C16.9587 145.439 7.15348 150.589 3.76111 150.38C2.16073 150.276 -0.442716 149.766 0.0644485 147.701C1.36053 142.656 10.1627 139.883 15.8654 137.308C18.1646 136.276 17.5672 136.485 18.0631 133.91C18.6605 131.033 22.4698 110.967 23.3602 109.935C23.6645 109.622 26.854 108.183 27.4626 107.975C27.7669 109.831 27.9697 111.779 28.0599 113.739L29.063 125.269C29.063 127.02 29.3673 129.282 29.6603 130.929C32.2637 129.688 34.8559 128.458 37.5608 127.229C50.9612 120.641 48.4592 125.072 51.66 117.66C53.4632 113.542 53.3618 111.072 57.3627 111.686C56.6527 119.933 58.8504 125.083 65.1505 129.398ZM62.254 119.214C60.7551 119.724 61.3524 122.091 63.0542 121.685L65.3534 120.861C66.7509 120.444 66.255 117.985 64.5532 118.391L62.254 119.214ZM322.734 174.576C324.03 175.713 325.427 173.648 324.233 172.627L323.229 171.804C321.832 170.667 320.434 172.732 321.629 173.764L322.734 174.576ZM315.836 168.916C317.132 169.948 318.631 167.988 317.437 166.955L315.442 165.308C314.146 164.276 312.647 166.341 313.943 167.361L315.836 168.916ZM308.037 162.745C309.232 163.777 310.832 161.817 309.536 160.692L307.541 159.149C306.245 158.221 304.645 160.182 306.042 161.214L308.037 162.745ZM300.035 156.771C301.433 157.804 302.74 155.542 301.433 154.718L299.336 153.28C297.939 152.248 296.631 154.521 297.939 155.333L300.035 156.771ZM291.83 151.111C293.228 152.039 294.535 149.882 293.228 148.954L291.132 147.62C289.734 146.692 288.337 148.757 289.734 149.685L291.83 151.111ZM283.535 145.66C284.831 146.483 286.229 144.43 284.73 143.502L282.634 142.168C281.338 141.345 279.94 143.398 281.338 144.326L283.535 145.66ZM274.936 140.51C276.537 141.333 277.54 139.071 276.232 138.248L274.035 137.018C272.536 136.195 271.431 138.457 272.84 139.28L274.936 140.51ZM266.337 135.673C267.836 136.392 268.839 134.13 267.441 133.411L265.244 132.17C263.745 131.451 262.64 133.713 264.139 134.432L266.337 135.673ZM257.433 131.149C258.932 131.869 260.037 129.607 258.527 128.783L256.329 127.751C254.931 127.032 253.725 129.189 255.224 130.013L257.433 131.149ZM248.541 126.927C250.141 127.542 250.942 125.176 249.443 124.561L247.144 123.529C245.645 122.914 244.743 125.28 246.242 125.895L248.541 126.927ZM230.137 119.516C231.838 120.026 232.334 117.555 230.937 117.149L228.536 116.326C226.834 115.816 226.339 118.286 227.736 118.692L230.137 119.516ZM220.737 116.43C222.236 116.941 222.935 114.47 221.436 113.96L219.035 113.241C217.435 112.823 216.736 115.294 218.337 115.711L220.737 116.43ZM211.236 113.763C212.634 114.169 213.535 111.814 211.834 111.292L209.433 110.677C207.63 110.271 207.337 112.835 208.836 113.148L211.236 113.763ZM201.645 111.396C203.246 111.71 203.64 109.239 202.141 108.926L199.639 108.415C198.039 108.102 197.543 110.573 199.132 110.886L201.645 111.396ZM191.942 109.541C193.44 109.854 194.038 107.383 192.336 106.966C191.536 106.861 190.634 106.652 189.834 106.56C188.335 106.246 187.738 108.717 189.44 109.135C190.24 109.227 191.141 109.332 191.942 109.541ZM182.148 107.998C183.849 108.207 184.052 105.632 182.452 105.527L180.051 105.214C178.35 105.005 178.147 107.58 179.747 107.685L182.148 107.998ZM172.342 106.966C173.943 107.07 174.247 104.599 172.545 104.391L170.043 104.182C168.544 103.973 168.15 106.548 169.942 106.757L172.342 106.966ZM162.549 106.246C164.25 106.351 164.149 103.776 162.65 103.776L160.148 103.671C158.446 103.567 158.446 106.142 160.047 106.142L162.549 106.246ZM152.642 106.038C154.242 106.038 154.344 103.463 152.642 103.463C151.842 103.463 150.94 103.463 150.14 103.463C148.641 103.463 148.438 106.038 150.14 106.038C151.053 106.038 151.842 106.038 152.642 106.038ZM142.747 106.246C144.55 106.038 144.246 103.567 142.645 103.671L140.245 103.776C138.543 103.88 138.746 106.455 140.346 106.351L142.747 106.246ZM132.953 106.757C134.553 106.652 134.35 104.077 132.75 104.182L130.248 104.391C128.647 104.495 128.85 107.07 130.451 106.966L132.953 106.757ZM123.148 107.685C124.647 107.58 124.545 105.005 122.843 105.214C122.043 105.319 121.141 105.423 120.341 105.527C118.842 105.632 118.944 108.207 120.646 107.998C121.446 107.893 122.246 107.789 123.148 107.685ZM113.354 109.019C115.055 108.705 114.458 106.246 112.959 106.548L110.446 106.861C108.846 107.279 109.341 109.749 110.84 109.436L113.354 109.019ZM103.548 110.77C105.149 110.457 104.754 107.893 103.154 108.195L100.652 108.705C99.153 109.019 99.5475 111.489 101.148 111.176L103.548 110.77ZM93.9462 112.73C95.4451 112.521 95.0507 109.958 93.3488 110.26L90.9483 110.874C89.2464 111.292 90.0466 113.751 91.5456 113.345L93.9462 112.73ZM84.3551 115.201C85.9555 114.69 85.2568 112.22 83.6564 112.73L81.2558 113.345C79.6554 113.751 80.3542 116.222 81.9546 115.816L84.3551 115.201ZM74.7528 117.88C76.3532 117.474 75.7559 114.899 74.0541 115.41L71.7549 116.129C70.256 116.535 70.7519 119.005 72.4537 118.599L74.7528 117.88ZM522.511 105.632C521.012 106.142 521.61 108.508 523.311 108.102L525.61 107.279C527.008 106.861 526.614 104.402 524.81 104.913L522.511 105.632ZM782.991 161.098C784.287 162.13 785.786 160.066 784.49 159.138L783.487 158.21C782.089 157.073 780.692 159.242 781.886 160.17L782.991 161.098ZM776.093 155.438C777.401 156.47 778.888 154.405 777.694 153.385L775.688 151.842C774.391 150.81 772.881 152.77 774.189 153.802L776.093 155.438ZM768.294 149.163C769.489 150.195 771.089 148.235 769.793 147.202L767.798 145.66C766.502 144.627 764.902 146.588 766.299 147.713L768.294 149.163ZM760.292 143.294C761.69 144.221 762.997 142.064 761.69 141.136L759.695 139.698C758.196 138.77 756.889 140.939 758.297 141.855L760.292 143.294ZM752.099 137.529C753.496 138.457 754.792 136.299 753.496 135.371L751.4 134.038C750.003 133.11 748.695 135.279 750.002 136.195L752.099 137.529ZM743.793 132.077C745.1 133.005 746.497 130.941 745.1 129.92L742.902 128.586C741.708 127.762 740.209 129.816 741.707 130.848L743.793 132.077ZM735.295 126.927C736.794 127.751 737.797 125.489 736.501 124.77L734.303 123.436C732.804 122.717 731.699 124.979 733.108 125.698L735.295 126.927ZM726.605 122.091C728.104 122.81 729.209 120.652 727.698 119.829L725.501 118.692C724.002 117.869 722.999 120.235 724.396 120.954L726.605 122.091ZM717.702 117.567C719.201 118.286 720.305 116.024 718.806 115.305L716.609 114.169C715.211 113.449 714.016 115.711 715.504 116.43L717.702 117.567ZM708.798 113.345C710.399 113.96 711.199 111.594 709.7 110.979L707.502 109.947C705.902 109.332 705 111.802 706.499 112.313L708.798 113.345ZM699.602 109.541C701.101 110.155 702.092 107.789 700.503 107.07L698.204 106.246C696.705 105.632 695.804 107.998 697.302 108.613L699.602 109.541ZM690.405 106.038C692.107 106.548 692.603 103.985 691.205 103.567L688.805 102.744C687.103 102.233 686.607 104.704 688.004 105.214L690.405 106.038ZM681.006 102.848C682.606 103.358 683.203 100.899 681.704 100.482L679.304 99.7626C677.703 99.2523 677.005 101.723 678.605 102.129L681.006 102.848ZM671.505 100.18C672.902 100.586 673.804 98.2199 672.102 97.7096L669.701 97.0949C667.898 96.6889 667.594 99.2523 669.104 99.5654L671.505 100.18ZM661.902 97.9068C663.503 98.22 663.897 95.645 662.398 95.3318L659.896 94.8215C658.296 94.5083 657.89 96.9789 659.502 97.292L661.902 97.9068ZM652.21 95.9582C653.709 96.2713 654.317 93.8008 652.604 93.4876C651.804 93.2788 651.004 93.1744 650.102 92.9772C648.705 92.7685 648.006 95.239 649.708 95.5522C650.61 95.645 651.41 95.8538 652.21 95.9582ZM642.405 94.4155C644.107 94.6243 644.309 92.1537 642.709 91.9449L640.308 91.6317C638.607 91.423 638.404 93.9979 640.004 94.1023L642.405 94.4155ZM632.611 93.3832C634.211 93.592 634.504 91.017 632.814 90.8082L630.312 90.5994C628.813 90.4951 628.407 92.9656 630.21 93.1744L632.611 93.3832ZM622.806 92.7684C624.507 92.7684 624.406 90.1935 622.907 90.1935L620.405 90.0891C618.703 90.0891 618.703 92.5597 620.304 92.6641L622.806 92.7684ZM612.91 92.4553C614.511 92.4553 614.612 89.9847 612.91 89.8803C612.11 89.8803 611.209 89.8803 610.408 89.8803C608.909 89.8803 608.707 92.4553 610.408 92.4553C611.31 92.4553 612.11 92.4553 612.91 92.4553ZM603.015 92.6641C604.818 92.5597 604.514 89.9847 602.914 90.0891L600.513 90.1935C598.811 90.2979 599.014 92.8728 600.614 92.7684L603.015 92.6641ZM593.21 93.1744C594.81 93.07 594.709 90.495 593.007 90.7038L590.505 90.9126C588.905 91.017 589.107 93.4876 590.708 93.3832L593.21 93.1744ZM583.416 94.2067C584.915 93.9979 584.813 91.423 583.112 91.6317C582.311 91.7361 581.41 91.8405 580.61 91.9449C579.111 92.0493 579.212 94.6243 580.914 94.4155C581.714 94.3111 582.514 94.2067 583.416 94.2067ZM573.611 95.4362C575.313 95.123 574.704 92.6641 573.216 92.9656L570.714 93.3716C569.114 93.6848 569.61 96.1553 571.109 95.8422L573.611 95.4362ZM563.806 97.1876C565.406 96.8745 565.012 94.4155 563.411 94.7171L560.92 95.123C559.421 95.4362 559.816 97.9996 561.416 97.698L563.806 97.1876ZM554.215 99.2523C555.713 98.9391 555.319 96.3757 553.617 96.7817L551.217 97.292C549.515 97.8024 550.315 100.18 551.814 99.7626L554.215 99.2523ZM544.612 101.618C546.213 101.108 545.514 98.7419 544.015 99.1479L541.513 99.7626C539.913 100.273 540.611 102.639 542.212 102.233L544.612 101.618ZM535.111 104.286C536.61 103.88 536.013 101.41 534.413 101.816L532.012 102.535C530.513 102.941 531.009 105.516 532.711 105.005L535.111 104.286Z" fill="#CCCCCC"/>
</svg>
